<svg width="1600" height="1200" viewBox="0 0 1600 1200" fill="none" xmlns="http://www.w3.org/2000/svg">
  <rect width="1600" height="1200" fill="#060606"/>
  <g opacity="0.18">
    <path d="M0 180H1600" stroke="white"/>
    <path d="M0 420H1600" stroke="white"/>
    <path d="M0 660H1600" stroke="white"/>
    <path d="M0 900H1600" stroke="white"/>
    <path d="M220 0V1200" stroke="white"/>
    <path d="M620 0V1200" stroke="white"/>
    <path d="M1020 0V1200" stroke="white"/>
    <path d="M1420 0V1200" stroke="white"/>
  </g>
  <rect x="138" y="128" width="1324" height="944" rx="40" fill="url(#paint0_linear)" stroke="white" stroke-opacity="0.18"/>
  <rect x="220" y="228" width="430" height="544" rx="28" fill="#101010" stroke="white" stroke-opacity="0.15"/>
  <rect x="712" y="228" width="650" height="148" rx="24" fill="#101010" stroke="white" stroke-opacity="0.12"/>
  <rect x="712" y="412" width="650" height="102" rx="24" fill="#0C0C0C" stroke="white" stroke-opacity="0.1"/>
  <rect x="712" y="550" width="650" height="226" rx="24" fill="#090909" stroke="white" stroke-opacity="0.12"/>
  <g opacity="0.76">
    <path d="M266 680C366 548 470 394 610 304" stroke="white" stroke-width="3"/>
    <path d="M286 692C432 610 540 514 622 378" stroke="white" stroke-width="3" stroke-dasharray="9 11"/>
    <circle cx="386" cy="548" r="14" fill="white"/>
    <circle cx="498" cy="442" r="10" fill="white"/>
    <circle cx="586" cy="346" r="7" fill="white"/>
  </g>
  <text x="224" y="196" fill="white" font-family="Montserrat, sans-serif" font-size="34" letter-spacing="0.26em">VECTOR</text>
  <text x="744" y="306" fill="white" font-family="Montserrat, sans-serif" font-size="92" font-weight="700" letter-spacing="-0.05em">Research engine</text>
  <text x="744" y="462" fill="white" fill-opacity="0.7" font-family="Montserrat, sans-serif" font-size="34">streaming answers / source traces / durable sessions</text>
  <defs>
    <linearGradient id="paint0_linear" x1="160" y1="148" x2="1398" y2="1058" gradientUnits="userSpaceOnUse">
      <stop stop-color="#111111"/>
      <stop offset="1" stop-color="#050505"/>
    </linearGradient>
  </defs>
</svg>
